<svg width="72" height="25" viewBox="0 0 72 25" fill="none" xmlns="http://www.w3.org/2000/svg">
<path d="M7.62109 1.77344C6.85286 1.77344 6.46224 2.00781 6.44922 2.47656C6.46224 2.8151 6.57292 3.14714 6.78125 3.47266L12.6211 12.418L13.4414 11.0703C16.8268 5.53646 18.5195 2.61979 18.5195 2.32031C18.5326 2.02083 18.3503 1.83854 17.9727 1.77344C17.5951 1.69531 16.8919 1.64323 15.8633 1.61719V0.757812H23.4219V1.61719C23.3958 1.63021 23.3177 1.63672 23.1875 1.63672C21.8984 1.70182 20.987 2.0599 20.4531 2.71094C19.3203 4.09115 17.3346 7.21615 14.4961 12.0859C13.9232 13.0755 13.5521 13.7266 13.3828 14.0391V21.0312C13.3828 21.8776 13.4544 22.3854 13.5977 22.5547C13.7409 22.724 14.0273 22.8542 14.457 22.9453L15.7656 23.1992V24H8.16797V23.2383L9.30078 23.0039C9.99089 22.8607 10.401 22.5872 10.5312 22.1836C10.6745 21.7799 10.7461 21.0378 10.7461 19.957V14.0391C7.45182 8.4401 5.2513 4.99609 4.14453 3.70703C2.92057 2.30078 1.82031 1.60417 0.84375 1.61719V0.757812H11C12.3021 0.757812 12.9596 1.20703 12.9727 2.10547C12.9727 2.78255 12.6341 3.2513 11.957 3.51172C11.7227 3.58984 11.4948 3.62891 11.2734 3.62891C10.6094 3.62891 9.95833 3.36198 9.32031 2.82812C8.69531 2.28125 8.29167 1.96875 8.10938 1.89062C7.9401 1.8125 7.77734 1.77344 7.62109 1.77344ZM46 10.5039C46 10.6732 45.5964 11.6562 44.7891 13.4531C43.9948 15.237 42.9336 17.0143 41.6055 18.7852L43.5586 20.8164C44.9388 22.2747 45.7591 23.0885 46.0195 23.2578C46.2799 23.4141 46.4557 23.5052 46.5469 23.5312L47.875 23.8047V24.6445H40.2773V23.8438L41.4102 23.6094C42.3607 23.4792 41.944 22.457 40.1602 20.543C37.6341 23.2383 34.9648 24.5924 32.1523 24.6055C30.6549 24.6055 29.2747 24.1562 28.0117 23.2578C26.319 21.9948 25.4596 20.3086 25.4336 18.1992C25.4336 15.8164 27.0156 13.8438 30.1797 12.2812C30.349 12.2031 30.4531 12.151 30.4922 12.125C29.0078 10.849 27.9922 9.78125 27.4453 8.92188C26.9115 8.04948 26.6445 7.06641 26.6445 5.97266C26.6445 4.08464 27.3867 2.56771 28.8711 1.42188C30.0299 0.536458 31.293 0.09375 32.6602 0.09375C34.8737 0.09375 36.5859 0.686198 37.7969 1.87109C38.8125 2.88672 39.3203 4.26693 39.3203 6.01172C39.3203 7.74349 38.3438 9.24089 36.3906 10.5039C35.6484 10.9857 34.9128 11.3372 34.1836 11.5586L39.0469 16.3438L40.3945 17.6133C41.9049 15.556 43.168 13.349 44.1836 10.9922L44.3789 10.5039L42.875 10.1523V9.23438L48.0703 9.09766V10.0156L46 10.5039ZM31.6445 13.1211C30.5117 14.1237 29.6523 15.0612 29.0664 15.9336C28.4935 16.806 28.207 17.776 28.207 18.8438C28.207 19.8984 28.6042 20.862 29.3984 21.7344C30.2057 22.5938 31.2214 23.0299 32.4453 23.043C34.6198 23.0299 36.8008 21.793 38.9883 19.332C37.0482 17.431 34.8802 15.569 32.4844 13.7461C32.1198 13.4596 31.8398 13.2513 31.6445 13.1211ZM29.3203 5.28906C29.3203 7.03385 30.5638 8.75911 33.0508 10.4648C34.1706 9.7487 35.0234 8.9349 35.6094 8.02344C36.2083 7.09896 36.5078 6.23958 36.5078 5.44531C36.5078 3.89583 35.9349 2.78906 34.7891 2.125C34.1771 1.78646 33.4154 1.61719 32.5039 1.61719C31.6055 1.61719 30.8503 1.98177 30.2383 2.71094C29.6263 3.42708 29.3203 4.28646 29.3203 5.28906ZM50.1992 2.16406C50.1992 1.23958 50.8568 0.770833 52.1719 0.757812H64.9453C66.7031 0.757812 68.207 1.23307 69.457 2.18359C70.707 3.13411 71.3255 4.59245 71.3125 6.55859C71.2865 10.7643 69.0794 12.8672 64.6914 12.8672C62.8294 12.8151 61.8724 12.3464 61.8203 11.4609C61.8594 10.4714 62.4128 9.97005 63.4805 9.95703C64.0404 9.95703 64.4766 10.1784 64.7891 10.6211C65.1016 11.0638 65.3034 11.3242 65.3945 11.4023C65.5898 11.5456 65.8242 11.6172 66.0977 11.6172C67.6862 11.6172 68.4805 10.0352 68.4805 6.87109C68.4805 5.13932 67.8815 3.80469 66.6836 2.86719C65.9284 2.28125 65.1146 1.98828 64.2422 1.98828H60.4922V21.0508C60.4922 21.8971 60.5638 22.4049 60.707 22.5742C60.8503 22.7305 61.1302 22.8477 61.5469 22.9258L62.875 23.1992V24H55.2773V23.2383L56.4102 23.0039C57.1003 22.8607 57.5104 22.5938 57.6406 22.2031C57.7839 21.8125 57.8555 21.0638 57.8555 19.957V5.34766C57.7773 3.5638 57.3672 2.47005 56.625 2.06641C56.3646 1.9362 56.0521 1.87109 55.6875 1.87109C55.3359 1.87109 54.8411 2.125 54.2031 2.63281C53.3438 3.32292 52.5885 3.67448 51.9375 3.6875C51.2995 3.6875 50.8503 3.51823 50.5898 3.17969C50.3294 2.82812 50.1992 2.48958 50.1992 2.16406Z" fill="#FFFFF0"/>
</svg>
